<svg xmlns="http://www.w3.org/2000/svg" xmlns:xlink="http://www.w3.org/1999/xlink" width="500" zoomAndPan="magnify" viewBox="0 0 375 374.999991" height="500" preserveAspectRatio="xMidYMid meet" version="1.2"><defs><clipPath id="fe86337e98"><rect x="0" width="209" y="0" height="40"/></clipPath><clipPath id="e57b22483c"><path d="M 74.148438 56.171875 L 301 56.171875 L 301 293.171875 L 74.148438 293.171875 Z M 74.148438 56.171875 "/></clipPath><clipPath id="5716ef6456"><path d="M 193.796875 56.246094 C 203.246094 56.8125 211.546875 62.035156 212.5625 68.425781 C 213.445312 75.652344 205.636719 81.535156 195.09375 81.097656 C 184.394531 80.921875 175.886719 74.460938 176.082031 67.140625 C 176.316406 60.6875 184.277344 56.027344 193.796875 56.246094 M 226.199219 273.890625 C 233.890625 272.65625 238.621094 275.765625 237 280.457031 C 235.390625 284.480469 228.507812 288.707031 221.714844 290.136719 C 214.570312 291.363281 209.277344 289.21875 210.117188 284.957031 C 210.90625 280.0625 218.136719 274.953125 226.199219 273.890625 Z M 256.261719 223.867188 C 257.664062 222.980469 259.121094 222.210938 260.5625 221.621094 C 265.902344 216.894531 270.128906 210.121094 272.339844 202.660156 C 274.609375 194.398438 274.363281 185.902344 271.714844 178.851562 C 271.734375 178.945312 271.734375 178.945312 271.753906 178.945312 C 267.050781 172.523438 264.839844 163.25 266.625 154.171875 C 268.988281 140.460938 279.222656 133.753906 288.835938 138.625 C 296.957031 143.316406 301.96875 156.464844 300.742188 168.5625 C 299.546875 176.617188 295.765625 182.90625 290.800781 185.472656 C 290.828125 185.476562 290.828125 185.476562 290.851562 185.476562 C 286.550781 189.898438 282.835938 196.847656 280.671875 204.671875 C 279.417969 208.921875 278.726562 213.117188 278.609375 216.96875 C 278.089844 225.632812 280.792969 224.492188 281.644531 230.550781 C 282.1875 235.664062 280.257812 242.117188 276.160156 248.207031 C 270.351562 256.46875 260.96875 262.863281 252.871094 263.296875 C 235.210938 262.714844 244.691406 248.359375 235.925781 238.558594 C 233.757812 236.085938 230.96875 233.933594 227.683594 232.253906 C 223.777344 230.316406 219.457031 229.089844 214.953125 228.6875 C 199.183594 227.019531 187.886719 235.230469 183.507812 249.488281 C 182.304688 253.113281 182.011719 256.710938 182.40625 260.082031 C 182.65625 262.675781 185.644531 269.109375 185.644531 269.105469 C 191.171875 273.53125 193.367188 279.359375 190.910156 284.589844 C 187.179688 291.472656 174.980469 294.621094 162.992188 292.460938 C 150.980469 289.578125 142.171875 281.773438 143.613281 274.128906 C 144.382812 270.652344 146.855469 267.730469 150.507812 265.664062 C 156.902344 261.84375 158.675781 264.308594 165.265625 257.5625 C 168.039062 254.558594 170.1875 250.832031 171.414062 246.613281 C 178.394531 221.902344 156.421875 219.289062 161.921875 197.558594 C 165.941406 182.164062 181.980469 172.914062 197.628906 177.085938 C 197.648438 177.097656 197.648438 177.097656 197.675781 177.101562 C 200.328125 177.75 202.925781 178.769531 205.398438 180.183594 C 225.601562 191.882812 210.628906 208.988281 234.242188 221.851562 C 241.242188 225.492188 249.148438 226.160156 256.324219 223.820312 C 256.265625 223.871094 256.265625 223.871094 256.261719 223.867188 Z M 146.953125 129.578125 C 158.65625 135.902344 169.0625 134.878906 178.082031 126.636719 C 187.023438 118.636719 183.34375 117.640625 189.234375 110.414062 C 192.238281 106.777344 196.667969 104.097656 203.757812 102.566406 C 235.628906 97 252.34375 146.789062 219.640625 155.183594 C 210.964844 157.429688 204.644531 156.332031 199.203125 153.1875 C 190.90625 148.4375 194.730469 147.691406 183.699219 144.804688 C 171.246094 141.628906 161.820312 146.035156 154.300781 158.144531 C 151.425781 167.925781 143.789062 175.589844 134.398438 178.058594 C 134.386719 178.058594 134.386719 178.058594 134.375 178.0625 C 120.351562 181.957031 106.769531 173.054688 103.621094 158.515625 C 101.867188 149.445312 104.582031 140.117188 110.183594 133.328125 C 119.027344 123.140625 122.902344 121.042969 124.9375 106.300781 C 125.707031 101.417969 125.378906 96.972656 123.875 93.410156 C 121.632812 87.84375 120.152344 89.171875 116.996094 86.097656 C 114.277344 83.488281 113.308594 79.796875 114.738281 75.425781 C 117.75 67.550781 128.722656 59.730469 139.726562 57.125 C 151.511719 55.121094 160.460938 59.707031 159.476562 68.261719 C 159.09375 71.667969 157.441406 75.097656 154.722656 78.222656 C 148.605469 85.589844 145.671875 83.171875 140.074219 93.003906 C 138.027344 96.757812 136.6875 100.945312 136.300781 105.253906 C 135.382812 117.503906 138.980469 122.402344 146.953125 129.578125 Z M 97.742188 195.871094 C 109.746094 196.511719 120.828125 208.605469 121.765625 222.390625 C 123.035156 235.484375 114.339844 243.960938 103.144531 241.992188 C 93.03125 239.625 83.789062 228.730469 81.683594 217.042969 C 80.117188 204.757812 86.929688 195.011719 97.742188 195.871094 Z M 88.652344 101.960938 C 95.328125 99.984375 99.894531 105.101562 98.390625 113.761719 C 97.128906 122.84375 89.960938 131.351562 82.839844 132.480469 C 76.507812 133.644531 73.082031 127.757812 74.777344 119.511719 C 76.714844 111.765625 82.726562 104.050781 88.652344 101.960938 Z M 258.609375 85.890625 C 264.75 87.605469 270.914062 93.886719 272.5625 100.085938 C 274.167969 106.828125 270.296875 111.410156 263.707031 110.1875 C 256.703125 109.097656 249.851562 102.15625 248.734375 94.996094 C 247.527344 88.285156 252.015625 84.292969 258.609375 85.890625 Z M 258.609375 85.890625 "/></clipPath><linearGradient x1="435.928796" gradientTransform="matrix(0.531482,0,0,-0.530701,73.085834,766.386762)" y1="1331.202524" x2="-4.744847" gradientUnits="userSpaceOnUse" y2="898.550285" id="e9f20ead54"><stop style="stop-color:#0deff6;stop-opacity:1;" offset="0"/><stop style="stop-color:#0deff6;stop-opacity:1;" offset="0.125"/><stop style="stop-color:#0deff6;stop-opacity:1;" offset="0.1875"/><stop style="stop-color:#0deff6;stop-opacity:1;" offset="0.21875"/><stop style="stop-color:#0deff6;stop-opacity:1;" offset="0.226562"/><stop style="stop-color:#0eeef6;stop-opacity:1;" offset="0.230469"/><stop style="stop-color:#0fedf6;stop-opacity:1;" offset="0.234375"/><stop style="stop-color:#11ebf6;stop-opacity:1;" offset="0.238281"/><stop style="stop-color:#12eaf6;stop-opacity:1;" offset="0.242188"/><stop style="stop-color:#14e8f6;stop-opacity:1;" offset="0.246094"/><stop style="stop-color:#16e7f6;stop-opacity:1;" offset="0.25"/><stop style="stop-color:#17e5f6;stop-opacity:1;" offset="0.253906"/><stop style="stop-color:#19e3f6;stop-opacity:1;" offset="0.257812"/><stop style="stop-color:#1ae2f6;stop-opacity:1;" offset="0.261719"/><stop style="stop-color:#1ce0f6;stop-opacity:1;" offset="0.265625"/><stop style="stop-color:#1edef6;stop-opacity:1;" offset="0.269531"/><stop style="stop-color:#1fddf6;stop-opacity:1;" offset="0.273438"/><stop style="stop-color:#21dbf6;stop-opacity:1;" offset="0.277344"/><stop style="stop-color:#23d9f6;stop-opacity:1;" offset="0.28125"/><stop style="stop-color:#24d8f6;stop-opacity:1;" offset="0.285156"/><stop style="stop-color:#26d6f6;stop-opacity:1;" offset="0.289062"/><stop style="stop-color:#28d4f6;stop-opacity:1;" offset="0.292969"/><stop style="stop-color:#29d3f6;stop-opacity:1;" offset="0.296875"/><stop style="stop-color:#2bd1f6;stop-opacity:1;" offset="0.300781"/><stop style="stop-color:#2dd0f6;stop-opacity:1;" offset="0.304688"/><stop style="stop-color:#2ecef6;stop-opacity:1;" offset="0.308594"/><stop style="stop-color:#30ccf6;stop-opacity:1;" offset="0.3125"/><stop style="stop-color:#32cbf6;stop-opacity:1;" offset="0.316406"/><stop style="stop-color:#33c9f6;stop-opacity:1;" offset="0.320313"/><stop style="stop-color:#35c7f6;stop-opacity:1;" offset="0.324219"/><stop style="stop-color:#37c6f7;stop-opacity:1;" offset="0.328125"/><stop style="stop-color:#38c4f7;stop-opacity:1;" offset="0.332031"/><stop style="stop-color:#3ac2f7;stop-opacity:1;" offset="0.335938"/><stop style="stop-color:#3bc1f7;stop-opacity:1;" offset="0.339844"/><stop style="stop-color:#3dbff7;stop-opacity:1;" offset="0.34375"/><stop style="stop-color:#3fbdf7;stop-opacity:1;" offset="0.347656"/><stop style="stop-color:#40bcf7;stop-opacity:1;" offset="0.351562"/><stop style="stop-color:#42baf7;stop-opacity:1;" offset="0.355469"/><stop style="stop-color:#44b9f7;stop-opacity:1;" offset="0.359375"/><stop style="stop-color:#45b7f7;stop-opacity:1;" offset="0.363281"/><stop style="stop-color:#47b5f7;stop-opacity:1;" offset="0.367188"/><stop style="stop-color:#49b4f7;stop-opacity:1;" offset="0.371094"/><stop style="stop-color:#4ab2f7;stop-opacity:1;" offset="0.375"/><stop style="stop-color:#4cb0f7;stop-opacity:1;" offset="0.378906"/><stop style="stop-color:#4eaff7;stop-opacity:1;" offset="0.382813"/><stop style="stop-color:#4fadf7;stop-opacity:1;" offset="0.386719"/><stop style="stop-color:#51abf7;stop-opacity:1;" offset="0.390625"/><stop style="stop-color:#53aaf7;stop-opacity:1;" offset="0.394531"/><stop style="stop-color:#54a8f7;stop-opacity:1;" offset="0.398438"/><stop style="stop-color:#56a6f7;stop-opacity:1;" offset="0.402344"/><stop style="stop-color:#58a5f7;stop-opacity:1;" offset="0.40625"/><stop style="stop-color:#59a3f7;stop-opacity:1;" offset="0.410156"/><stop style="stop-color:#5ba2f7;stop-opacity:1;" offset="0.414062"/><stop style="stop-color:#5ca0f7;stop-opacity:1;" offset="0.417969"/><stop style="stop-color:#5e9ef7;stop-opacity:1;" offset="0.421875"/><stop style="stop-color:#609df7;stop-opacity:1;" offset="0.425781"/><stop style="stop-color:#619bf7;stop-opacity:1;" offset="0.429688"/><stop style="stop-color:#6399f7;stop-opacity:1;" offset="0.433594"/><stop style="stop-color:#6598f7;stop-opacity:1;" offset="0.4375"/><stop style="stop-color:#6696f7;stop-opacity:1;" offset="0.441406"/><stop style="stop-color:#6894f7;stop-opacity:1;" offset="0.445312"/><stop style="stop-color:#6a93f7;stop-opacity:1;" offset="0.449219"/><stop style="stop-color:#6b91f7;stop-opacity:1;" offset="0.453125"/><stop style="stop-color:#6d8ff7;stop-opacity:1;" offset="0.457031"/><stop style="stop-color:#6f8ef7;stop-opacity:1;" offset="0.460938"/><stop style="stop-color:#708cf7;stop-opacity:1;" offset="0.464844"/><stop style="stop-color:#728bf7;stop-opacity:1;" offset="0.46875"/><stop style="stop-color:#7489f7;stop-opacity:1;" offset="0.472656"/><stop style="stop-color:#7587f7;stop-opacity:1;" offset="0.476563"/><stop style="stop-color:#7786f7;stop-opacity:1;" offset="0.480469"/><stop style="stop-color:#7984f7;stop-opacity:1;" offset="0.484375"/><stop style="stop-color:#7a82f7;stop-opacity:1;" offset="0.488281"/><stop style="stop-color:#7c81f7;stop-opacity:1;" offset="0.492188"/><stop style="stop-color:#7d7ff7;stop-opacity:1;" offset="0.496094"/><stop style="stop-color:#7f7df7;stop-opacity:1;" offset="0.5"/><stop style="stop-color:#817cf7;stop-opacity:1;" offset="0.503906"/><stop style="stop-color:#827af7;stop-opacity:1;" offset="0.507812"/><stop style="stop-color:#8478f7;stop-opacity:1;" offset="0.511719"/><stop style="stop-color:#8677f8;stop-opacity:1;" offset="0.515625"/><stop style="stop-color:#8775f8;stop-opacity:1;" offset="0.519531"/><stop style="stop-color:#8974f8;stop-opacity:1;" offset="0.523438"/><stop style="stop-color:#8b72f8;stop-opacity:1;" offset="0.527344"/><stop style="stop-color:#8c70f8;stop-opacity:1;" offset="0.53125"/><stop style="stop-color:#8e6ff8;stop-opacity:1;" offset="0.535156"/><stop style="stop-color:#906df8;stop-opacity:1;" offset="0.539062"/><stop style="stop-color:#916bf8;stop-opacity:1;" offset="0.542969"/><stop style="stop-color:#936af8;stop-opacity:1;" offset="0.546875"/><stop style="stop-color:#9568f8;stop-opacity:1;" offset="0.550781"/><stop style="stop-color:#9666f8;stop-opacity:1;" offset="0.554688"/><stop style="stop-color:#9865f8;stop-opacity:1;" offset="0.558594"/><stop style="stop-color:#9963f8;stop-opacity:1;" offset="0.5625"/><stop style="stop-color:#9b61f8;stop-opacity:1;" offset="0.566406"/><stop style="stop-color:#9d60f8;stop-opacity:1;" offset="0.570313"/><stop style="stop-color:#9e5ef8;stop-opacity:1;" offset="0.574219"/><stop style="stop-color:#a05df8;stop-opacity:1;" offset="0.578125"/><stop style="stop-color:#a25bf8;stop-opacity:1;" offset="0.582031"/><stop style="stop-color:#a359f8;stop-opacity:1;" offset="0.585938"/><stop style="stop-color:#a558f8;stop-opacity:1;" offset="0.589844"/><stop style="stop-color:#a756f8;stop-opacity:1;" offset="0.59375"/><stop style="stop-color:#a854f8;stop-opacity:1;" offset="0.597656"/><stop style="stop-color:#aa53f8;stop-opacity:1;" offset="0.601562"/><stop style="stop-color:#ac51f8;stop-opacity:1;" offset="0.605469"/><stop style="stop-color:#ad4ff8;stop-opacity:1;" offset="0.609375"/><stop style="stop-color:#af4ef8;stop-opacity:1;" offset="0.613281"/><stop style="stop-color:#b14cf8;stop-opacity:1;" offset="0.617188"/><stop style="stop-color:#b24af8;stop-opacity:1;" offset="0.621094"/><stop style="stop-color:#b449f8;stop-opacity:1;" offset="0.625"/><stop style="stop-color:#b647f8;stop-opacity:1;" offset="0.628906"/><stop style="stop-color:#b746f8;stop-opacity:1;" offset="0.632812"/><stop style="stop-color:#b944f8;stop-opacity:1;" offset="0.636719"/><stop style="stop-color:#ba42f8;stop-opacity:1;" offset="0.640625"/><stop style="stop-color:#bc41f8;stop-opacity:1;" offset="0.644531"/><stop style="stop-color:#be3ff8;stop-opacity:1;" offset="0.648438"/><stop style="stop-color:#bf3df8;stop-opacity:1;" offset="0.652344"/><stop style="stop-color:#c13cf8;stop-opacity:1;" offset="0.65625"/><stop style="stop-color:#c33af8;stop-opacity:1;" offset="0.660156"/><stop style="stop-color:#c438f8;stop-opacity:1;" offset="0.664063"/><stop style="stop-color:#c637f8;stop-opacity:1;" offset="0.667969"/><stop style="stop-color:#c835f8;stop-opacity:1;" offset="0.671875"/><stop style="stop-color:#c933f8;stop-opacity:1;" offset="0.675781"/><stop style="stop-color:#cb32f8;stop-opacity:1;" offset="0.679688"/><stop style="stop-color:#cd30f8;stop-opacity:1;" offset="0.683594"/><stop style="stop-color:#ce2ff8;stop-opacity:1;" offset="0.6875"/><stop style="stop-color:#d02df8;stop-opacity:1;" offset="0.691406"/><stop style="stop-color:#d22bf8;stop-opacity:1;" offset="0.695312"/><stop style="stop-color:#d32af8;stop-opacity:1;" offset="0.699219"/><stop style="stop-color:#d528f9;stop-opacity:1;" offset="0.703125"/><stop style="stop-color:#d726f9;stop-opacity:1;" offset="0.707031"/><stop style="stop-color:#d825f9;stop-opacity:1;" offset="0.710938"/><stop style="stop-color:#da23f9;stop-opacity:1;" offset="0.714844"/><stop style="stop-color:#db21f9;stop-opacity:1;" offset="0.71875"/><stop style="stop-color:#dd20f9;stop-opacity:1;" offset="0.722656"/><stop style="stop-color:#df1ef9;stop-opacity:1;" offset="0.726562"/><stop style="stop-color:#e01cf9;stop-opacity:1;" offset="0.730469"/><stop style="stop-color:#e21bf9;stop-opacity:1;" offset="0.734375"/><stop style="stop-color:#e419f9;stop-opacity:1;" offset="0.738281"/><stop style="stop-color:#e518f9;stop-opacity:1;" offset="0.742188"/><stop style="stop-color:#e716f9;stop-opacity:1;" offset="0.746094"/><stop style="stop-color:#e914f9;stop-opacity:1;" offset="0.75"/><stop style="stop-color:#ea13f9;stop-opacity:1;" offset="0.753906"/><stop style="stop-color:#ec11f9;stop-opacity:1;" offset="0.757812"/><stop style="stop-color:#ee0ff9;stop-opacity:1;" offset="0.761719"/><stop style="stop-color:#ef0ef9;stop-opacity:1;" offset="0.765625"/><stop style="stop-color:#f10cf9;stop-opacity:1;" offset="0.769531"/><stop style="stop-color:#f30af9;stop-opacity:1;" offset="0.773438"/><stop style="stop-color:#f409f9;stop-opacity:1;" offset="0.777344"/><stop style="stop-color:#f607f9;stop-opacity:1;" offset="0.78125"/><stop style="stop-color:#f805f9;stop-opacity:1;" offset="0.785156"/><stop style="stop-color:#f904f9;stop-opacity:1;" offset="0.789062"/><stop style="stop-color:#fb02f9;stop-opacity:1;" offset="0.792969"/><stop style="stop-color:#fc01f9;stop-opacity:1;" offset="0.796875"/><stop style="stop-color:#fc01f9;stop-opacity:1;" offset="0.8125"/><stop style="stop-color:#fc01f9;stop-opacity:1;" offset="0.875"/><stop style="stop-color:#fc01f9;stop-opacity:1;" offset="1"/></linearGradient></defs><g id="acc034bc11"><rect x="0" width="375" y="0" height="374.999991" style="fill:#ffffff;fill-opacity:1;stroke:none;"/><rect x="0" width="375" y="0" height="374.999991" style="fill:#000000;fill-opacity:1;stroke:none;"/><g transform="matrix(1,0,0,1,85,299)"><g clip-path="url(#fe86337e98)"><g style="fill:#ffffff;fill-opacity:1;"><g transform="translate(0.905492, 28.128335)"><path style="stroke:none" d="M 2.71875 0 C 2.78125 -0.34375 2.8125 -0.710938 2.8125 -1.109375 L 2.8125 -20.03125 L 5.828125 -20.03125 L 13.8125 -7.46875 L 13.8125 -19 C 13.8125 -19.550781 13.757812 -19.894531 13.65625 -20.03125 L 17.71875 -20.03125 C 17.675781 -19.625 17.65625 -19.179688 17.65625 -18.703125 L 17.65625 0 L 14.515625 0 L 6.65625 -12.0625 L 6.65625 0 Z M 2.71875 0 "/></g></g><g style="fill:#ffffff;fill-opacity:1;"><g transform="translate(25.685432, 28.128335)"><path style="stroke:none" d="M 12.671875 -3.609375 C 13.285156 -3.609375 13.71875 -3.671875 13.96875 -3.796875 L 14.015625 -3.78125 L 13.875 0 L 2.59375 0 L 2.59375 -20.140625 C 2.863281 -20.117188 3.164062 -20.101562 3.5 -20.09375 L 4.546875 -20.0625 C 5.253906 -20.039062 6.019531 -20.03125 6.84375 -20.03125 C 9.132812 -20.03125 11.40625 -20.070312 13.65625 -20.15625 C 13.550781 -19.269531 13.5 -18.085938 13.5 -16.609375 C 13.5 -16.453125 13.507812 -16.332031 13.53125 -16.25 L 13.5 -16.203125 C 12.976562 -16.359375 12.234375 -16.4375 11.265625 -16.4375 L 6.515625 -16.4375 L 6.515625 -12.59375 L 10.09375 -12.59375 C 11.195312 -12.59375 11.859375 -12.625 12.078125 -12.6875 L 12.125 -8.96875 C 11.644531 -9.007812 11.019531 -9.03125 10.25 -9.03125 L 6.515625 -9.03125 L 6.515625 -3.609375 Z M 12.671875 -3.609375 "/></g></g><g style="fill:#ffffff;fill-opacity:1;"><g transform="translate(45.451474, 28.128335)"><path style="stroke:none" d="M 4.234375 -2.375 C 3.316406 -3.25 2.59375 -4.296875 2.0625 -5.515625 C 1.539062 -6.742188 1.28125 -8.085938 1.28125 -9.546875 C 1.28125 -11.015625 1.523438 -12.398438 2.015625 -13.703125 C 2.503906 -15.003906 3.207031 -16.148438 4.125 -17.140625 C 5.039062 -18.140625 6.144531 -18.929688 7.4375 -19.515625 C 8.726562 -20.109375 10.179688 -20.40625 11.796875 -20.40625 C 14.566406 -20.40625 16.898438 -19.53125 18.796875 -17.78125 C 20.828125 -15.914062 21.84375 -13.394531 21.84375 -10.21875 C 21.84375 -7.15625 20.796875 -4.601562 18.703125 -2.5625 C 17.421875 -1.300781 15.890625 -0.4375 14.109375 0.03125 C 13.234375 0.257812 12.210938 0.375 11.046875 0.375 C 9.878906 0.375 8.679688 0.132812 7.453125 -0.34375 C 6.222656 -0.820312 5.148438 -1.5 4.234375 -2.375 Z M 5.46875 -9.765625 C 5.46875 -8.828125 5.625 -7.96875 5.9375 -7.1875 C 6.25 -6.40625 6.679688 -5.734375 7.234375 -5.171875 C 8.398438 -3.984375 9.910156 -3.390625 11.765625 -3.390625 C 13.515625 -3.390625 14.925781 -3.957031 16 -5.09375 C 17.082031 -6.269531 17.625 -7.867188 17.625 -9.890625 C 17.625 -11.796875 17.101562 -13.390625 16.0625 -14.671875 C 14.945312 -16.035156 13.421875 -16.71875 11.484375 -16.71875 C 9.609375 -16.71875 8.117188 -16.023438 7.015625 -14.640625 C 5.984375 -13.347656 5.46875 -11.722656 5.46875 -9.765625 Z M 5.46875 -9.765625 "/></g></g><g style="fill:#ffffff;fill-opacity:1;"><g transform="translate(72.881401, 28.128335)"><path style="stroke:none" d="M 5.53125 0 C 4.050781 0 3.070312 0.03125 2.59375 0.09375 L 2.59375 -20.125 C 2.832031 -20.0625 3.328125 -20.03125 4.078125 -20.03125 C 4.835938 -20.03125 5.722656 -20.050781 6.734375 -20.09375 L 6.734375 -3.609375 L 9.84375 -3.609375 C 10.75 -3.609375 11.472656 -3.640625 12.015625 -3.703125 C 11.941406 -1.359375 11.90625 -0.140625 11.90625 -0.046875 L 11.90625 0.109375 C 10.925781 0.0351562 9.273438 0 6.953125 0 Z M 5.53125 0 "/></g></g><g style="fill:#ffffff;fill-opacity:1;"><g transform="translate(90.072738, 28.128335)"><path style="stroke:none" d="M 12.671875 -3.609375 C 13.285156 -3.609375 13.71875 -3.671875 13.96875 -3.796875 L 14.015625 -3.78125 L 13.875 0 L 2.59375 0 L 2.59375 -20.140625 C 2.863281 -20.117188 3.164062 -20.101562 3.5 -20.09375 L 4.546875 -20.0625 C 5.253906 -20.039062 6.019531 -20.03125 6.84375 -20.03125 C 9.132812 -20.03125 11.40625 -20.070312 13.65625 -20.15625 C 13.550781 -19.269531 13.5 -18.085938 13.5 -16.609375 C 13.5 -16.453125 13.507812 -16.332031 13.53125 -16.25 L 13.5 -16.203125 C 12.976562 -16.359375 12.234375 -16.4375 11.265625 -16.4375 L 6.515625 -16.4375 L 6.515625 -12.59375 L 10.09375 -12.59375 C 11.195312 -12.59375 11.859375 -12.625 12.078125 -12.6875 L 12.125 -8.96875 C 11.644531 -9.007812 11.019531 -9.03125 10.25 -9.03125 L 6.515625 -9.03125 L 6.515625 -3.609375 Z M 12.671875 -3.609375 "/></g></g><g style="fill:#ffffff;fill-opacity:1;"><g transform="translate(109.83878, 28.128335)"><path style="stroke:none" d="M 2.71875 0 C 2.78125 -0.34375 2.8125 -0.710938 2.8125 -1.109375 L 2.8125 -20.03125 L 5.828125 -20.03125 L 13.8125 -7.46875 L 13.8125 -19 C 13.8125 -19.550781 13.757812 -19.894531 13.65625 -20.03125 L 17.71875 -20.03125 C 17.675781 -19.625 17.65625 -19.179688 17.65625 -18.703125 L 17.65625 0 L 14.515625 0 L 6.65625 -12.0625 L 6.65625 0 Z M 2.71875 0 "/></g></g><g style="fill:#ffffff;fill-opacity:1;"><g transform="translate(134.61872, 28.128335)"><path style="stroke:none" d="M 14.6875 -18.921875 L 14.390625 -14.484375 L 14.296875 -14.453125 C 13.546875 -15.566406 12.28125 -16.289062 10.5 -16.625 C 9.9375 -16.738281 9.394531 -16.796875 8.875 -16.796875 C 8.363281 -16.796875 7.921875 -16.75 7.546875 -16.65625 C 7.179688 -16.5625 6.867188 -16.429688 6.609375 -16.265625 C 6.054688 -15.898438 5.78125 -15.425781 5.78125 -14.84375 C 5.78125 -14.082031 6.019531 -13.507812 6.5 -13.125 C 7.101562 -12.664062 8.101562 -12.34375 9.5 -12.15625 C 10.894531 -11.96875 12.015625 -11.710938 12.859375 -11.390625 C 13.703125 -11.078125 14.394531 -10.675781 14.9375 -10.1875 C 15.957031 -9.257812 16.46875 -7.953125 16.46875 -6.265625 C 16.46875 -4.054688 15.632812 -2.351562 13.96875 -1.15625 C 12.550781 -0.132812 10.753906 0.375 8.578125 0.375 C 6.835938 0.375 5.113281 0.0390625 3.40625 -0.625 C 2.84375 -0.84375 2.347656 -1.097656 1.921875 -1.390625 L 2.09375 -6.421875 L 2.15625 -6.453125 C 3.394531 -4.304688 5.4375 -3.234375 8.28125 -3.234375 C 10.300781 -3.234375 11.640625 -3.722656 12.296875 -4.703125 C 12.515625 -5.035156 12.625 -5.40625 12.625 -5.8125 C 12.625 -6.21875 12.554688 -6.550781 12.421875 -6.8125 C 12.296875 -7.082031 12.082031 -7.3125 11.78125 -7.5 C 11.195312 -7.882812 10.21875 -8.140625 8.84375 -8.265625 C 7.46875 -8.398438 6.34375 -8.644531 5.46875 -9 C 4.59375 -9.363281 3.894531 -9.8125 3.375 -10.34375 C 2.425781 -11.3125 1.953125 -12.65625 1.953125 -14.375 C 1.953125 -16.164062 2.582031 -17.613281 3.84375 -18.71875 C 5.113281 -19.84375 6.832031 -20.40625 9 -20.40625 C 11.164062 -20.40625 13.0625 -19.910156 14.6875 -18.921875 Z M 14.6875 -18.921875 "/></g></g><g style="fill:#ffffff;fill-opacity:1;"><g transform="translate(156.899239, 28.128335)"><path style="stroke:none" d=""/></g></g><g style="fill:#ffffff;fill-opacity:1;"><g transform="translate(171.440588, 28.128335)"><path style="stroke:none" d="M 4.046875 0.125 C 3.179688 0.0390625 2.175781 0 1.03125 0 L -0.171875 0 L 6.390625 -18.359375 C 6.679688 -19.179688 6.828125 -19.660156 6.828125 -19.796875 C 6.828125 -19.929688 6.820312 -20.015625 6.8125 -20.046875 L 6.828125 -20.078125 C 7.472656 -20.046875 8.164062 -20.03125 8.90625 -20.03125 C 9.5 -20.03125 10.21875 -20.039062 11.0625 -20.0625 L 11.078125 -20.03125 C 11.054688 -19.988281 11.046875 -19.929688 11.046875 -19.859375 C 11.046875 -19.671875 11.195312 -19.164062 11.5 -18.34375 L 18.1875 0.046875 C 17.988281 0.0351562 17.753906 0.03125 17.484375 0.03125 C 17.484375 0.03125 17.222656 0.0195312 16.703125 0 C 16.453125 0 16.226562 0 16.03125 0 L 13.6875 0 L 12.28125 -4.34375 L 5.46875 -4.34375 Z M 11.09375 -7.953125 L 8.828125 -14.953125 L 6.609375 -7.953125 Z M 11.09375 -7.953125 "/></g></g><g style="fill:#ffffff;fill-opacity:1;"><g transform="translate(193.781324, 28.128335)"><path style="stroke:none" d="M 3.0625 -20.09375 C 4.0625 -20.050781 4.664062 -20.03125 4.875 -20.03125 L 5.96875 -20.03125 C 6.5 -20.03125 6.925781 -20.070312 7.25 -20.15625 L 7.234375 0 L 3.0625 0 Z M 3.0625 -20.09375 "/></g></g></g></g><g clip-rule="nonzero" clip-path="url(#e57b22483c)"><g clip-rule="nonzero" clip-path="url(#5716ef6456)"><path style=" stroke:none;fill-rule:nonzero;fill:url(#e9f20ead54);" d="M 74.148438 293.171875 L 74.148438 56.171875 L 301.089844 56.171875 L 301.089844 293.171875 Z M 74.148438 293.171875 "/></g></g></g></svg>